<svg xmlns="http://www.w3.org/2000/svg" viewBox="0 0 600 400">
  <defs>
    <filter id="cardShadow2" x="-10%" y="-10%" width="120%" height="130%">
      <feDropShadow dx="0" dy="8" stdDeviation="15" flood-opacity="0.1"/>
    </filter>
  </defs>
  
  <!-- Background -->
  <rect width="600" height="400" fill="#f8fafc" rx="16"/>
  
  <!-- Kanban columns -->
  <!-- Column 1: Qualified -->
  <rect x="20" y="20" width="130" height="360" rx="10" fill="#e8f4fc"/>
  <rect x="30" y="35" width="70" height="20" rx="5" fill="#244066"/>
  <text x="65" y="50" font-size="9" fill="#fff" text-anchor="middle" font-weight="600">Qualified</text>
  <text x="110" y="50" font-size="12" fill="#244066" font-weight="700">4</text>
  
  <!-- Cards in column 1 -->
  <rect x="30" y="70" width="110" height="70" rx="8" fill="#fff" filter="url(#cardShadow2)"/>
  <rect x="40" y="82" width="70" height="10" rx="2" fill="#244066"/>
  <rect x="40" y="98" width="90" height="6" rx="1" fill="#999"/>
  <rect x="40" y="115" width="40" height="14" rx="4" fill="#22c55e" opacity="0.2"/>
  <text x="52" y="125" font-size="7" fill="#22c55e" font-weight="600">$5K</text>
  
  <rect x="30" y="150" width="110" height="70" rx="8" fill="#fff" filter="url(#cardShadow2)"/>
  <rect x="40" y="162" width="80" height="10" rx="2" fill="#244066"/>
  <rect x="40" y="178" width="70" height="6" rx="1" fill="#999"/>
  <rect x="40" y="195" width="45" height="14" rx="4" fill="#f59e0b" opacity="0.2"/>
  <text x="54" y="205" font-size="7" fill="#f59e0b" font-weight="600">$8K</text>
  
  <!-- Column 2: Proposal -->
  <rect x="160" y="20" width="130" height="360" rx="10" fill="#fff3f0"/>
  <rect x="170" y="35" width="60" height="20" rx="5" fill="#f2421b"/>
  <text x="200" y="50" font-size="9" fill="#fff" text-anchor="middle" font-weight="600">Proposal</text>
  <text x="250" y="50" font-size="12" fill="#f2421b" font-weight="700">3</text>
  
  <rect x="170" y="70" width="110" height="70" rx="8" fill="#fff" filter="url(#cardShadow2)"/>
  <rect x="180" y="82" width="60" height="10" rx="2" fill="#244066"/>
  <rect x="180" y="98" width="85" height="6" rx="1" fill="#999"/>
  <rect x="180" y="115" width="50" height="14" rx="4" fill="#f2421b" opacity="0.2"/>
  <text x="196" y="125" font-size="7" fill="#f2421b" font-weight="600">$12K</text>
  
  <rect x="170" y="150" width="110" height="70" rx="8" fill="#fff" filter="url(#cardShadow2)"/>
  <rect x="180" y="162" width="75" height="10" rx="2" fill="#244066"/>
  <rect x="180" y="178" width="60" height="6" rx="1" fill="#999"/>
  <rect x="180" y="195" width="45" height="14" rx="4" fill="#f2421b" opacity="0.2"/>
  <text x="193" y="205" font-size="7" fill="#f2421b" font-weight="600">$15K</text>
  
  <!-- Column 3: Negotiation -->
  <rect x="300" y="20" width="130" height="360" rx="10" fill="#e8f4fc"/>
  <rect x="310" y="35" width="75" height="20" rx="5" fill="#244066"/>
  <text x="347" y="50" font-size="9" fill="#fff" text-anchor="middle" font-weight="600">Negotiation</text>
  <text x="400" y="50" font-size="12" fill="#244066" font-weight="700">2</text>
  
  <rect x="310" y="70" width="110" height="80" rx="8" fill="#fff" filter="url(#cardShadow2)"/>
  <rect x="320" y="82" width="85" height="10" rx="2" fill="#244066"/>
  <rect x="320" y="98" width="75" height="6" rx="1" fill="#999"/>
  <rect x="320" y="110" width="50" height="6" rx="1" fill="#999"/>
  <rect x="320" y="125" width="50" height="14" rx="4" fill="#3b82f6" opacity="0.2"/>
  <text x="336" y="135" font-size="7" fill="#3b82f6" font-weight="600">$25K</text>
  
  <!-- Column 4: Won -->
  <rect x="440" y="20" width="140" height="360" rx="10" fill="#e8fce8"/>
  <rect x="450" y="35" width="45" height="20" rx="5" fill="#22c55e"/>
  <text x="472" y="50" font-size="9" fill="#fff" text-anchor="middle" font-weight="600">Won</text>
  <text x="510" y="50" font-size="12" fill="#22c55e" font-weight="700">5</text>
  
  <rect x="450" y="70" width="120" height="65" rx="8" fill="#fff" filter="url(#cardShadow2)"/>
  <rect x="460" y="82" width="75" height="10" rx="2" fill="#244066"/>
  <rect x="460" y="98" width="90" height="6" rx="1" fill="#999"/>
  <rect x="460" y="115" width="50" height="12" rx="4" fill="#22c55e"/>
  <text x="476" y="124" font-size="7" fill="#fff" font-weight="600">$18K</text>
  
  <rect x="450" y="145" width="120" height="65" rx="8" fill="#fff" filter="url(#cardShadow2)"/>
  <rect x="460" y="157" width="65" height="10" rx="2" fill="#244066"/>
  <rect x="460" y="173" width="80" height="6" rx="1" fill="#999"/>
  <rect x="460" y="190" width="50" height="12" rx="4" fill="#22c55e"/>
  <text x="476" y="199" font-size="7" fill="#fff" font-weight="600">$32K</text>
  
  <!-- Total bar -->
  <rect x="20" y="350" width="560" height="25" rx="8" fill="#244066"/>
  <text x="45" y="367" font-size="10" fill="#fff" font-weight="600">Total Pipeline Value:</text>
  <text x="540" y="367" font-size="12" fill="#fff" text-anchor="end" font-weight="700">$115,000</text>
</svg>

