<svg xmlns="http://www.w3.org/2000/svg" viewBox="0 0 800 500">
  <defs>
    <linearGradient id="headerGrad" x1="0%" y1="0%" x2="100%" y2="0%">
      <stop offset="0%" style="stop-color:#244066"/>
      <stop offset="100%" style="stop-color:#3a5a8a"/>
    </linearGradient>
    <filter id="shadow" x="-20%" y="-20%" width="140%" height="140%">
      <feDropShadow dx="0" dy="10" stdDeviation="20" flood-opacity="0.15"/>
    </filter>
  </defs>
  
  <!-- Main container -->
  <rect x="20" y="20" width="760" height="460" rx="16" fill="#f8fafc" filter="url(#shadow)"/>
  
  <!-- Header -->
  <rect x="20" y="20" width="760" height="60" rx="16" fill="url(#headerGrad)"/>
  <rect x="20" y="60" width="760" height="20" fill="url(#headerGrad)"/>
  
  <!-- Logo placeholder -->
  <circle cx="60" cy="50" r="15" fill="#fff" opacity="0.9"/>
  <rect x="85" y="42" width="80" height="16" rx="4" fill="#fff" opacity="0.7"/>
  
  <!-- Nav items -->
  <rect x="500" y="42" width="50" height="12" rx="3" fill="#fff" opacity="0.5"/>
  <rect x="560" y="42" width="50" height="12" rx="3" fill="#fff" opacity="0.5"/>
  <rect x="620" y="42" width="50" height="12" rx="3" fill="#fff" opacity="0.5"/>
  <rect x="690" y="38" width="70" height="24" rx="6" fill="#f2421b"/>
  
  <!-- Sidebar -->
  <rect x="20" y="80" width="180" height="400" fill="#1a3050"/>
  
  <!-- Sidebar menu items -->
  <rect x="40" y="110" width="140" height="36" rx="8" fill="#244066"/>
  <rect x="40" y="160" width="140" height="30" rx="6" fill="transparent" stroke="#3a5a8a" stroke-width="1"/>
  <rect x="40" y="200" width="140" height="30" rx="6" fill="transparent" stroke="#3a5a8a" stroke-width="1"/>
  <rect x="40" y="240" width="140" height="30" rx="6" fill="transparent" stroke="#3a5a8a" stroke-width="1"/>
  <rect x="40" y="280" width="140" height="30" rx="6" fill="transparent" stroke="#3a5a8a" stroke-width="1"/>
  <rect x="40" y="320" width="140" height="30" rx="6" fill="transparent" stroke="#3a5a8a" stroke-width="1"/>
  
  <!-- Main content area -->
  <rect x="220" y="100" width="540" height="360" fill="#fff" rx="12"/>
  
  <!-- Stats cards -->
  <rect x="240" y="120" width="160" height="80" rx="10" fill="#e8f4fc"/>
  <rect x="260" y="140" width="60" height="12" rx="3" fill="#244066" opacity="0.3"/>
  <rect x="260" y="160" width="100" height="24" rx="4" fill="#244066"/>
  
  <rect x="420" y="120" width="160" height="80" rx="10" fill="#fff3f0"/>
  <rect x="440" y="140" width="60" height="12" rx="3" fill="#f2421b" opacity="0.3"/>
  <rect x="440" y="160" width="80" height="24" rx="4" fill="#f2421b"/>
  
  <rect x="600" y="120" width="140" height="80" rx="10" fill="#e8fce8"/>
  <rect x="620" y="140" width="60" height="12" rx="3" fill="#22c55e" opacity="0.3"/>
  <rect x="620" y="160" width="70" height="24" rx="4" fill="#22c55e"/>
  
  <!-- Chart area -->
  <rect x="240" y="220" width="320" height="160" rx="10" fill="#f8fafc"/>
  <rect x="260" y="240" width="100" height="16" rx="4" fill="#244066"/>
  
  <!-- Chart bars -->
  <rect x="270" y="320" width="30" height="40" rx="4" fill="#244066" opacity="0.3"/>
  <rect x="310" y="290" width="30" height="70" rx="4" fill="#244066" opacity="0.5"/>
  <rect x="350" y="270" width="30" height="90" rx="4" fill="#244066" opacity="0.7"/>
  <rect x="390" y="300" width="30" height="60" rx="4" fill="#244066" opacity="0.5"/>
  <rect x="430" y="280" width="30" height="80" rx="4" fill="#f2421b"/>
  <rect x="470" y="310" width="30" height="50" rx="4" fill="#244066" opacity="0.4"/>
  
  <!-- Pipeline -->
  <rect x="580" y="220" width="160" height="160" rx="10" fill="#f8fafc"/>
  <rect x="600" y="240" width="80" height="14" rx="3" fill="#244066"/>
  
  <!-- Pipeline stages -->
  <rect x="600" y="270" width="120" height="24" rx="5" fill="#244066" opacity="0.2"/>
  <rect x="600" y="300" width="100" height="24" rx="5" fill="#244066" opacity="0.4"/>
  <rect x="600" y="330" width="80" height="24" rx="5" fill="#f2421b" opacity="0.8"/>
  
  <!-- Recent activity -->
  <rect x="240" y="400" width="500" height="50" rx="10" fill="#f8fafc"/>
  <circle cx="275" cy="425" r="15" fill="#244066" opacity="0.2"/>
  <rect x="300" y="415" width="150" height="10" rx="3" fill="#244066" opacity="0.5"/>
  <rect x="300" y="430" width="100" height="8" rx="2" fill="#244066" opacity="0.2"/>
</svg>

